<?xml version="1.0" encoding="UTF-8" standalone="no"?>
<svg
   xmlns:dc="http://purl.org/dc/elements/1.1/"
   xmlns:cc="http://creativecommons.org/ns#"
   xmlns:rdf="http://www.w3.org/1999/02/22-rdf-syntax-ns#"
   xmlns:svg="http://www.w3.org/2000/svg"
   xmlns="http://www.w3.org/2000/svg"
   xmlns:xlink="http://www.w3.org/1999/xlink"
   xmlns:sodipodi="http://sodipodi.sourceforge.net/DTD/sodipodi-0.dtd"
   xmlns:inkscape="http://www.inkscape.org/namespaces/inkscape"
   version="1.1"
   id="svg2"
   viewBox="0 0 534.60851 211.67716"
   height="5.974cm"
   width="15.08784cm"
   inkscape:version="0.91 r13725"
   sodipodi:docname="emg_eog_v3.svg">
  <sodipodi:namedview
     pagecolor="#ffffff"
     bordercolor="#666666"
     borderopacity="1"
     objecttolerance="10"
     gridtolerance="10"
     guidetolerance="10"
     inkscape:pageopacity="0"
     inkscape:pageshadow="2"
     inkscape:window-width="1280"
     inkscape:window-height="724"
     id="namedview10"
     showgrid="false"
     inkscape:document-units="cm"
     inkscape:zoom="2.1436248"
     inkscape:cx="239.60584"
     inkscape:cy="114.0238"
     inkscape:window-x="0"
     inkscape:window-y="24"
     inkscape:window-maximized="1"
     inkscape:current-layer="layer6"
     showguides="false" />
  <defs
     id="defs4">
    <linearGradient
       inkscape:collect="always"
       id="linearGradient5185">
      <stop
         style="stop-color:#e1d8c0;stop-opacity:1;"
         offset="0"
         id="stop5187" />
      <stop
         style="stop-color:#e1d8c0;stop-opacity:0;"
         offset="1"
         id="stop5189" />
    </linearGradient>
    <filter
       inkscape:collect="always"
       style="color-interpolation-filters:sRGB"
       id="filter5087"
       x="-0.09089614"
       width="1.1817923"
       y="-0.13303266"
       height="1.2660653">
      <feGaussianBlur
         inkscape:collect="always"
         stdDeviation="4.3538638"
         id="feGaussianBlur5089" />
    </filter>
    <filter
       inkscape:collect="always"
       style="color-interpolation-filters:sRGB"
       id="filter5099"
       x="-0.084309593"
       width="1.1686192"
       y="-0.1233928"
       height="1.2467856">
      <feGaussianBlur
         inkscape:collect="always"
         stdDeviation="4.0383726"
         id="feGaussianBlur5101" />
    </filter>
    <linearGradient
       inkscape:collect="always"
       xlink:href="#linearGradient5185"
       id="linearGradient5191"
       x1="240.08124"
       y1="208.78253"
       x2="240.25543"
       y2="221.37801"
       gradientUnits="userSpaceOnUse" />
  </defs>
  <metadata
     id="metadata7">
    <rdf:RDF>
      <cc:Work
         rdf:about="">
        <dc:format>image/svg+xml</dc:format>
        <dc:type
           rdf:resource="http://purl.org/dc/dcmitype/StillImage" />
        <dc:title></dc:title>
      </cc:Work>
    </rdf:RDF>
  </metadata>
  <g
     inkscape:groupmode="layer"
     id="layer1"
     inkscape:label="referencia nueva"
     sodipodi:insensitive="true"
     style="display:none">
    <image
       sodipodi:absref="/home/laptop_casa/TESIS/TESIS/img_diagramas/drawn-head-perspective-chart-11.jpg"
       xlink:href="drawn-head-perspective-chart-11.jpg"
       y="-333.73166"
       x="-688.51459"
       id="image4255"
       preserveAspectRatio="none"
       height="1553.5853"
       width="1068.0898" />
  </g>
  <g
     inkscape:groupmode="layer"
     id="layer6"
     inkscape:label="bueno"
     transform="translate(0,-9.7795276)">
    <path
       style="display:inline;opacity:1;fill:url(#linearGradient5191);fill-opacity:1;fill-rule:nonzero;stroke:#61495c;stroke-width:3.35449052;stroke-linecap:round;stroke-linejoin:round;stroke-miterlimit:4;stroke-dasharray:none;stroke-dashoffset:0;stroke-opacity:1"
       d="m 182.29213,219.7455 c -0.0768,-10.60849 -1.94934,-21.35658 -5.53346,-31.34158 -0.16663,-0.46421 -0.52851,-0.83709 -0.72813,-1.2881 -8.20345,-18.53546 -15.42061,-37.80425 -19.06145,-57.74426 -0.0617,-0.33806 -0.0318,-0.68658 -0.0437,-1.03002 -0.0171,-0.49964 -0.0296,-0.99945 -0.0396,-1.49928 -0.014,-0.69206 -0.0256,-1.38422 -0.0292,-2.07642 -0.003,-0.70935 8.5e-4,-1.41874 0.008,-2.12808 0.001,-0.16346 0.001,-0.32703 0.008,-0.49037 0.59804,-14.54471 0.1319,-29.282317 2.89285,-43.575097 0.21391,-1.107394 0.64007,-2.165791 1.04943,-3.216746 3.12,-8.009975 5.8333,-16.376324 10.69227,-23.467475 7.34805,-10.723662 16.05993,-21.289324 27.259,-27.890204 11.84414,-6.981101 26.02066,-10.936005 39.7691,-10.936006 13.74844,-10e-7 27.92491,3.95497 39.7691,10.936006 11.19923,6.60089 19.91143,17.166465 27.25964,27.890204 4.85902,7.091124 7.56899,15.458782 10.6923,23.467475 0.40631,1.041869 0.83053,2.090691 1.04314,3.188591 2.76936,14.300834 2.29996,29.049072 2.89912,43.603252 0.006,0.16334 0.006,0.32691 0.008,0.49037 0.006,0.70934 0.0114,1.41873 0.008,2.12808 -0.003,0.6922 -0.0151,1.38436 -0.0291,2.07642 -0.0103,0.49983 -0.0224,0.99964 -0.0396,1.49928 -0.0118,0.34344 0.018,0.69196 -0.0437,1.03002 -3.64084,19.94001 -10.85812,39.20875 -19.06145,57.74426 -0.19961,0.45101 -0.5615,0.82387 -0.72811,1.2881 -3.58368,9.98502 -5.45466,20.73321 -5.5314,31.34158"
       id="path4405"
       inkscape:connector-curvature="0"
       sodipodi:nodetypes="caaaaaaaaaaaaaaaaaaaaaaaaac" />
    <rect
       y="261.87781"
       x="-219.14047"
       height="66.01181"
       width="212.59842"
       id="rect4547"
       style="display:inline;opacity:1;fill:#800080;fill-opacity:0.33333333;fill-rule:nonzero;stroke:none;stroke-width:3.54330707;stroke-linecap:round;stroke-linejoin:round;stroke-miterlimit:4;stroke-dasharray:none;stroke-dashoffset:0;stroke-opacity:1"
       transform="scale(-1,1)" />
    <rect
       transform="matrix(-0.9884575,0,0,0.9884575,-11.136528,5.3041984)"
       style="display:inline;opacity:1;fill:#e1d8c0;fill-opacity:1;fill-rule:nonzero;stroke:none;stroke-width:3.54330707;stroke-linecap:round;stroke-linejoin:round;stroke-miterlimit:4;stroke-dasharray:none;stroke-dashoffset:0;stroke-opacity:1;filter:url(#filter5087)"
       id="rect4784"
       width="114.95838"
       height="78.546677"
       x="-136.67422"
       y="89.028542" />
    <text
       xml:space="preserve"
       style="font-style:normal;font-weight:normal;font-size:111.20146942px;line-height:125%;font-family:Sans;letter-spacing:0px;word-spacing:0px;fill:#000000;fill-opacity:1;stroke:none;stroke-width:1px;stroke-linecap:butt;stroke-linejoin:miter;stroke-opacity:1"
       x="25.38192"
       y="55.306923"
       id="text4740"
       sodipodi:linespacing="125%"><tspan
         sodipodi:role="line"
         id="tspan4742"
         x="25.38192"
         y="55.306923"
         style="font-size:18.75px;-inkscape-font-specification:'TeX Gyre Bonum';font-family:'TeX Gyre Bonum';font-weight:normal;font-style:normal;font-stretch:normal;font-variant:normal">Actividad</tspan><tspan
         sodipodi:role="line"
         x="25.38192"
         y="80.018356"
         style="font-size:18.75px;-inkscape-font-specification:'TeX Gyre Bonum';font-family:'TeX Gyre Bonum';font-weight:normal;font-style:normal;font-stretch:normal;font-variant:normal"
         id="tspan4842">muscular</tspan></text>
    <path
       inkscape:connector-curvature="0"
       id="path4702"
       d="m 23.336432,113.58762 c 2.158386,1.18256 5.302867,3.35532 8.237202,4.15942 2.972202,0.81448 6.133448,0.97283 9.17759,0.58826 5.465913,-0.69054 10.64031,-3.16253 15.821824,-5.13699 4.447268,-1.69467 10.459418,-2.89379 14.147748,-2.82259 3.68833,0.0712 7.493348,1.36242 10.978224,2.82259 4.491907,1.88214 8.974646,4.42262 13.844944,5.13699 3.033012,0.44488 6.205386,0.22622 9.177576,-0.58826 2.93432,-0.8041 5.9401,-1.91714 8.2372,-4.15942"
       style="fill:none;fill-opacity:1;fill-rule:evenodd;stroke:#82627b;stroke-width:3.3975153;stroke-linecap:round;stroke-linejoin:miter;stroke-miterlimit:4;stroke-dasharray:none;stroke-opacity:1"
       sodipodi:nodetypes="caaszsaac" />
    <path
       sodipodi:nodetypes="cc"
       inkscape:connector-curvature="0"
       id="path4704"
       d="m 45.888129,152.41857 49.033719,0"
       style="fill:none;fill-rule:evenodd;stroke:#808080;stroke-width:1.77165354;stroke-linecap:round;stroke-linejoin:miter;stroke-miterlimit:4;stroke-dasharray:1.77165354,3.54330709;stroke-dashoffset:0;stroke-opacity:1" />
    <path
       sodipodi:nodetypes="cc"
       inkscape:connector-curvature="0"
       id="path4706"
       d="m 70.404984,110.38966 0,21.01445"
       style="fill:none;fill-rule:evenodd;stroke:#808080;stroke-width:1.77165354;stroke-linecap:round;stroke-linejoin:miter;stroke-miterlimit:4;stroke-dasharray:1.77165354,3.54330709;stroke-dashoffset:0;stroke-opacity:1" />
    <path
       style="fill:none;fill-rule:evenodd;stroke:#808080;stroke-width:1.77165354;stroke-linecap:round;stroke-linejoin:miter;stroke-miterlimit:4;stroke-dasharray:1.77165354,3.54330709;stroke-dashoffset:0;stroke-opacity:1"
       d="m 70.404984,152.41857 0,-21.01446"
       id="path4708"
       inkscape:connector-curvature="0"
       sodipodi:nodetypes="cc" />
    <circle
       r="8.8051186"
       style="display:inline;opacity:1;fill:#800000;fill-opacity:1;fill-rule:nonzero;stroke:none;stroke-width:2.51053286;stroke-linecap:round;stroke-linejoin:round;stroke-miterlimit:4;stroke-dasharray:none;stroke-dashoffset:0;stroke-opacity:1"
       id="circle4710"
       cx="70.423225"
       cy="131.40353" />
    <circle
       transform="scale(-1,1)"
       r="8.8051186"
       style="display:inline;opacity:1;fill:#800000;fill-opacity:1;fill-rule:nonzero;stroke:none;stroke-width:2.51053286;stroke-linecap:round;stroke-linejoin:round;stroke-miterlimit:4;stroke-dasharray:none;stroke-dashoffset:0;stroke-opacity:1"
       id="circle4712"
       cx="-45.903545"
       cy="152.41534" />
    <circle
       cy="152.41534"
       cx="94.942917"
       id="circle4714"
       style="display:inline;opacity:1;fill:#800000;fill-opacity:1;fill-rule:nonzero;stroke:none;stroke-width:2.51053286;stroke-linecap:round;stroke-linejoin:round;stroke-miterlimit:4;stroke-dasharray:none;stroke-dashoffset:0;stroke-opacity:1"
       r="8.8051186" />
    <path
       sodipodi:nodetypes="caaszsaac"
       style="fill:none;fill-opacity:1;fill-rule:evenodd;stroke:#61495c;stroke-width:3.01181102;stroke-linecap:round;stroke-linejoin:miter;stroke-miterlimit:4;stroke-dasharray:none;stroke-opacity:1"
       d="m 23.336432,113.58762 c 2.158386,1.18256 5.302867,3.35532 8.237202,4.15942 2.972202,0.81448 6.133448,0.97283 9.17759,0.58826 5.465913,-0.69054 10.64031,-3.16253 15.821824,-5.13699 4.447268,-1.69467 10.459418,-2.89379 14.147748,-2.82259 3.68833,0.0712 7.493348,1.36242 10.978224,2.82259 4.491907,1.88214 8.974646,4.42262 13.844944,5.13699 3.033012,0.44488 6.205386,0.22622 9.177576,-0.58826 2.93432,-0.8041 5.9401,-1.91714 8.2372,-4.15942"
       id="path4716"
       inkscape:connector-curvature="0" />
    <rect
       y="89.028542"
       x="-136.67422"
       height="78.546677"
       width="114.95838"
       id="rect4826"
       style="display:inline;opacity:1;fill:#e1d8c0;fill-opacity:1;fill-rule:nonzero;stroke:none;stroke-width:3.54330707;stroke-linecap:round;stroke-linejoin:round;stroke-miterlimit:4;stroke-dasharray:none;stroke-dashoffset:0;stroke-opacity:1;filter:url(#filter5099)"
       transform="matrix(-1.4354224,0,0,1.0398641,328.04601,-3.5737522)" />
    <text
       sodipodi:linespacing="125%"
       id="text4834"
       y="194.19981"
       x="50.837257"
       style="font-style:normal;font-weight:normal;font-size:111.20146942px;line-height:125%;font-family:Sans;letter-spacing:0px;word-spacing:0px;fill:#000000;fill-opacity:1;stroke:none;stroke-width:1px;stroke-linecap:butt;stroke-linejoin:miter;stroke-opacity:1"
       xml:space="preserve"><tspan
         style="font-size:17.5px;-inkscape-font-specification:'TeX Gyre Bonum';font-family:'TeX Gyre Bonum';font-weight:normal;font-style:normal;font-stretch:normal;font-variant:normal"
         y="194.19981"
         x="50.837257"
         id="tspan4836"
         sodipodi:role="line">EMG</tspan></text>
    <path
       style="fill:none;fill-rule:evenodd;stroke:#808080;stroke-width:1.41732287;stroke-linecap:round;stroke-linejoin:miter;stroke-miterlimit:4;stroke-dasharray:1.41732283, 2.83464567;stroke-dashoffset:0;stroke-opacity:1"
       d="m 224.02801,180.73942 28.22279,0"
       id="path4642"
       inkscape:connector-curvature="0"
       sodipodi:nodetypes="cc" />
    <path
       style="fill:none;fill-rule:evenodd;stroke:#808080;stroke-width:1.41732287;stroke-linecap:round;stroke-linejoin:miter;stroke-miterlimit:4;stroke-dasharray:1.41732283, 2.83464567;stroke-dashoffset:0;stroke-opacity:1"
       d="m 238.13942,156.54846 0,12.09549"
       id="path4650"
       inkscape:connector-curvature="0"
       sodipodi:nodetypes="cc" />
    <path
       sodipodi:nodetypes="cc"
       inkscape:connector-curvature="0"
       id="path4652"
       d="m 238.13942,180.73942 0,-12.09547"
       style="fill:none;fill-rule:evenodd;stroke:#808080;stroke-width:1.41732287;stroke-linecap:round;stroke-linejoin:miter;stroke-miterlimit:4;stroke-dasharray:1.41732283, 2.83464567;stroke-dashoffset:0;stroke-opacity:1" />
    <circle
       cy="167.88403"
       cx="238.09756"
       id="circle4634"
       style="display:inline;opacity:1;fill:#800000;fill-opacity:1;fill-rule:nonzero;stroke:none;stroke-width:2.51053286;stroke-linecap:round;stroke-linejoin:round;stroke-miterlimit:4;stroke-dasharray:none;stroke-dashoffset:0;stroke-opacity:1"
       r="5.2536125" />
    <circle
       cy="180.82361"
       cx="-222.56042"
       id="circle4640"
       style="display:inline;opacity:1;fill:#800000;fill-opacity:1;fill-rule:nonzero;stroke:none;stroke-width:2.51053286;stroke-linecap:round;stroke-linejoin:round;stroke-miterlimit:4;stroke-dasharray:none;stroke-dashoffset:0;stroke-opacity:1"
       r="5.2536125"
       transform="scale(-1,1)" />
    <circle
       r="5.2536125"
       style="display:inline;opacity:1;fill:#800000;fill-opacity:1;fill-rule:nonzero;stroke:none;stroke-width:2.51053286;stroke-linecap:round;stroke-linejoin:round;stroke-miterlimit:4;stroke-dasharray:none;stroke-dashoffset:0;stroke-opacity:1"
       id="circle4636"
       cx="254.07178"
       cy="180.59305" />
    <path
       sodipodi:nodetypes="cc"
       inkscape:connector-curvature="0"
       id="path4690"
       d="m 177.41596,85.779691 11.6015,0"
       style="fill:none;fill-rule:evenodd;stroke:#808080;stroke-width:1.41732287;stroke-linecap:round;stroke-linejoin:miter;stroke-miterlimit:4;stroke-dasharray:1.41732283, 2.83464567;stroke-dashoffset:0;stroke-opacity:1" />
    <path
       sodipodi:nodetypes="zccccsccccz"
       inkscape:connector-curvature="0"
       id="path4560"
       d="m 227.45131,58.728762 c -0.38036,-1.178517 -5.09761,-5.731284 -8.70939,-7.738318 -7.17831,-1.89812 -21.72369,1.779918 -28.06835,5.039221 -1.51169,0.819189 -3.16953,2.038641 -4.26595,3.321845 -3.40909,5.753524 -6.98785,12.355374 -8.62153,17.95702 -0.005,0.215754 0.38509,0.433639 0.71599,0.150676 0.10142,-0.08677 2.12921,-3.514889 2.98658,-4.784911 4.92189,-8.749718 9.82977,-13.433112 19.3422,-15.92174 4.79473,-1.270741 9.96245,-2.980981 14.73383,-1.443089 4.19529,1.440073 6.01504,5.725782 9.41454,7.44707 1.31619,0.58233 2.85245,-2.849258 2.47208,-4.027774 z"
       style="fill:#000000;fill-opacity:0.58823529;fill-rule:evenodd;stroke:none;stroke-width:1px;stroke-linecap:butt;stroke-linejoin:miter;stroke-opacity:1" />
    <path
       style="fill:none;fill-rule:evenodd;stroke:#808080;stroke-width:1.41732287;stroke-linecap:round;stroke-linejoin:miter;stroke-miterlimit:4;stroke-dasharray:1.41732283, 2.83464567;stroke-dashoffset:0;stroke-opacity:1"
       d="m 177.40985,85.779691 0,-11.606559"
       id="path4692"
       inkscape:connector-curvature="0"
       sodipodi:nodetypes="cc" />
    <circle
       r="5.2536125"
       style="display:inline;opacity:1;fill:#114477;fill-opacity:1;fill-rule:nonzero;stroke:none;stroke-width:2.51053286;stroke-linecap:round;stroke-linejoin:round;stroke-miterlimit:4;stroke-dasharray:none;stroke-dashoffset:0;stroke-opacity:1"
       id="circle5178"
       cx="177.63438"
       cy="74.014359" />
    <path
       style="fill:none;fill-rule:evenodd;stroke:#808080;stroke-width:1.41732287;stroke-linecap:round;stroke-linejoin:miter;stroke-miterlimit:4;stroke-dasharray:1.41732283, 2.83464567;stroke-dashoffset:0;stroke-opacity:1"
       d="m 300.91364,84.195103 0,11.601496"
       id="path4695"
       inkscape:connector-curvature="0"
       sodipodi:nodetypes="cc" />
    <path
       sodipodi:nodetypes="cc"
       inkscape:connector-curvature="0"
       id="path4697"
       d="m 289.30351,84.192571 11.60656,0"
       style="fill:none;fill-rule:evenodd;stroke:#808080;stroke-width:1.41732287;stroke-linecap:round;stroke-linejoin:miter;stroke-miterlimit:4;stroke-dasharray:1.41732283, 2.83464567;stroke-dashoffset:0;stroke-opacity:1" />
    <circle
       cy="95.995026"
       cx="300.67673"
       id="circle4667"
       style="display:inline;opacity:1;fill:#114477;fill-opacity:1;fill-rule:nonzero;stroke:none;stroke-width:2.51053286;stroke-linecap:round;stroke-linejoin:round;stroke-miterlimit:4;stroke-dasharray:none;stroke-dashoffset:0;stroke-opacity:1"
       r="5.2536125" />
    <text
       sodipodi:linespacing="125%"
       id="text4744"
       y="52.664936"
       x="382.27545"
       style="font-style:normal;font-weight:normal;font-size:111.20146942px;line-height:125%;font-family:Sans;letter-spacing:0px;word-spacing:0px;fill:#000000;fill-opacity:1;stroke:none;stroke-width:1px;stroke-linecap:butt;stroke-linejoin:miter;stroke-opacity:1"
       xml:space="preserve"><tspan
         style="font-size:18.75px;-inkscape-font-specification:'TeX Gyre Bonum';font-family:'TeX Gyre Bonum';font-weight:normal;font-style:normal;font-stretch:normal;font-variant:normal"
         y="52.664936"
         x="382.27545"
         id="tspan4746"
         sodipodi:role="line">Movimientos</tspan><tspan
         style="font-size:18.75px;-inkscape-font-specification:'TeX Gyre Bonum';font-family:'TeX Gyre Bonum';font-weight:normal;font-style:normal;font-stretch:normal;font-variant:normal"
         y="76.102432"
         x="382.27545"
         sodipodi:role="line"
         id="tspan4844">    oculares</tspan></text>
    <path
       sodipodi:nodetypes="cc"
       inkscape:connector-curvature="0"
       id="path4718"
       d="m 416.99747,128.77766 c -7.27447,7.71166 -19.32862,8.78591 -26.2376,4.69904"
       style="fill:none;fill-rule:evenodd;stroke:#61495c;stroke-width:3.01181102;stroke-linecap:round;stroke-linejoin:miter;stroke-miterlimit:4;stroke-dasharray:none;stroke-opacity:1" />
    <path
       sodipodi:nodetypes="csssssscc"
       inkscape:connector-curvature="0"
       id="path4720"
       d="m 429.33168,99.686964 c -5.25726,-3.075309 -11.31616,-3.82967 -17.07138,-2.967764 -8.07457,1.209239 -16.17839,3.64385 -22.91772,8.31019 -5.42936,3.75932 -9.89198,9.05661 -12.59183,15.01589 -1.11662,2.4647 2.11957,-0.23269 2.93201,-0.92864 5.06728,-4.34067 10.48626,-8.46715 16.85253,-10.70113 7.40635,-2.59893 12.32832,-4.39465 20.34625,-4.51649 2.35669,-0.0358 6.91405,1.65515 9.18509,2.06108 3.15163,0.52398 6.13153,-4.402 3.26505,-6.273136 z"
       style="fill:#000000;fill-opacity:0.50196078;fill-rule:evenodd;stroke:none;stroke-width:3.54330707;stroke-linecap:butt;stroke-linejoin:miter;stroke-miterlimit:4;stroke-dasharray:none;stroke-opacity:1" />
    <path
       style="fill:#000000;fill-opacity:0.50196078;fill-rule:evenodd;stroke:none;stroke-width:3.54330707;stroke-linecap:butt;stroke-linejoin:miter;stroke-miterlimit:4;stroke-dasharray:none;stroke-opacity:1"
       d="m 461.00391,97.027302 c 5.55352,-2.500906 11.65824,-2.608994 17.28974,-1.142094 7.90097,2.058058 15.70117,5.337672 21.9081,10.691872 5.00044,4.31347 8.87661,10.05382 10.92977,16.26563 0.84916,2.56915 -2.08297,-0.45597 -2.81709,-1.23409 -4.5788,-4.85318 -9.53001,-9.53065 -15.6237,-12.42664 -7.08927,-3.36912 -11.79324,-5.67628 -19.75313,-6.64706 -2.33961,-0.28533 -7.0505,0.91318 -9.35176,1.07619 -3.18941,0.18706 -5.63056,-5.026938 -2.58193,-6.583808 z"
       id="path4722"
       inkscape:connector-curvature="0"
       sodipodi:nodetypes="csssssscc" />
    <path
       sodipodi:nodetypes="csssssssssc"
       inkscape:connector-curvature="0"
       id="path4724"
       d="m 438.58076,121.97894 c 1.35087,4.71625 1.28923,7.8188 0.7694,11.0723 -0.25437,1.59196 -2.6382,7.66127 -4.50382,10.17188 -2.70137,3.63531 -8.49905,8.28035 -8.34177,13.11504 0.10441,3.21087 4.31789,1.74915 8.26798,2.94154 3.9501,1.19239 3.47458,5.1593 8.92404,5.3087 5.44945,0.14938 4.97393,-4.11631 8.92403,-5.3087 3.95008,-1.19239 8.16356,0.26933 8.26797,-2.94154 0.15729,-4.83469 -5.99964,-9.23853 -8.34176,-13.11504 -2.10872,-3.4902 -3.18528,-7.03765 -3.73442,-10.6372 -0.54913,-3.59956 -0.40818,-7.34444 0.40604,-11.50917"
       style="fill:none;fill-opacity:0.33333333;fill-rule:evenodd;stroke:#61495c;stroke-width:3.01181102;stroke-linecap:round;stroke-linejoin:miter;stroke-miterlimit:4;stroke-dasharray:none;stroke-opacity:1" />
    <path
       style="fill:none;fill-rule:evenodd;stroke:#61495c;stroke-width:3.01181102;stroke-linecap:round;stroke-linejoin:miter;stroke-miterlimit:4;stroke-dasharray:none;stroke-opacity:1"
       d="m 468.14473,126.09763 c 7.01894,7.94493 19.03161,9.41198 26.07027,5.55274"
       id="path4726"
       inkscape:connector-curvature="0"
       sodipodi:nodetypes="cc" />
    <path
       style="fill:none;fill-rule:evenodd;stroke:#808080;stroke-width:1.75120425;stroke-linecap:round;stroke-linejoin:miter;stroke-miterlimit:4;stroke-dasharray:1.75120423, 3.50240846;stroke-dashoffset:0;stroke-opacity:1"
       d="m 368.53005,132.95948 20.86982,0"
       id="path4728"
       inkscape:connector-curvature="0"
       sodipodi:nodetypes="cc" />
    <path
       sodipodi:nodetypes="cc"
       inkscape:connector-curvature="0"
       id="path4730"
       d="m 368.51906,132.95948 0,-20.87892"
       style="fill:none;fill-rule:evenodd;stroke:#808080;stroke-width:1.75120425;stroke-linecap:round;stroke-linejoin:miter;stroke-miterlimit:4;stroke-dasharray:1.75120423, 3.50240846;stroke-dashoffset:0;stroke-opacity:1" />
    <circle
       cy="113.08464"
       cx="368.27362"
       id="circle4732"
       style="display:inline;opacity:1;fill:#114477;fill-opacity:1;fill-rule:nonzero;stroke:none;stroke-width:2.51053286;stroke-linecap:round;stroke-linejoin:round;stroke-miterlimit:4;stroke-dasharray:none;stroke-dashoffset:0;stroke-opacity:1"
       r="8.8051186" />
    <path
       sodipodi:nodetypes="cc"
       inkscape:connector-curvature="0"
       id="path4828"
       d="m 516.56124,131.98024 0,20.86982"
       style="fill:none;fill-rule:evenodd;stroke:#808080;stroke-width:1.75120425;stroke-linecap:round;stroke-linejoin:miter;stroke-miterlimit:4;stroke-dasharray:1.75120423, 3.50240846;stroke-dashoffset:0;stroke-opacity:1" />
    <path
       style="fill:none;fill-rule:evenodd;stroke:#808080;stroke-width:1.75120425;stroke-linecap:round;stroke-linejoin:miter;stroke-miterlimit:4;stroke-dasharray:1.75120423, 3.50240846;stroke-dashoffset:0;stroke-opacity:1"
       d="m 495.67587,131.9757 20.87892,0"
       id="path4830"
       inkscape:connector-curvature="0"
       sodipodi:nodetypes="cc" />
    <circle
       r="8.8051186"
       style="display:inline;opacity:1;fill:#114477;fill-opacity:1;fill-rule:nonzero;stroke:none;stroke-width:2.51053286;stroke-linecap:round;stroke-linejoin:round;stroke-miterlimit:4;stroke-dasharray:none;stroke-dashoffset:0;stroke-opacity:1"
       id="circle4832"
       cx="150.92715"
       cy="-516.6319"
       transform="matrix(0,1,-1,0,0,0)" />
    <text
       xml:space="preserve"
       style="font-style:normal;font-weight:normal;font-size:111.20146942px;line-height:125%;font-family:Sans;letter-spacing:0px;word-spacing:0px;fill:#000000;fill-opacity:1;stroke:none;stroke-width:1px;stroke-linecap:butt;stroke-linejoin:miter;stroke-opacity:1"
       x="380.34198"
       y="190.95245"
       id="text4838"
       sodipodi:linespacing="125%"><tspan
         sodipodi:role="line"
         id="tspan4840"
         x="380.34198"
         y="190.95245"
         style="font-size:17.5px;-inkscape-font-specification:'TeX Gyre Bonum';font-family:'TeX Gyre Bonum';font-weight:normal;font-style:normal;font-stretch:normal;font-variant:normal">ROG         LOG</tspan></text>
    <path
       sodipodi:nodetypes="csssscccssssc"
       inkscape:connector-curvature="0"
       id="path4275"
       d="m 293.85325,176.25461 c -1.37806,0.46316 -2.9543,1.19339 -4.59944,1.67003 -1.64513,0.47664 -3.35915,0.69968 -5.01274,0.14849 -4.86123,-1.62041 -7.18433,-5.74898 -10.07629,-9.49637 -2.89809,-3.75532 -5.03406,-8.56175 -8.36869,-11.02693 -3.4582,-2.55651 -6.16923,-3.52044 -8.6632,-4.18172 -7.67014,-1.84783 -13.83783,1.18131 -18.83299,1.28036 -7.55767,-0.30895 -12.41897,-3.09251 -19.56779,-1.28036 -2.49397,0.66128 -5.205,1.62521 -8.66319,4.18172 -3.33463,2.46518 -5.47062,7.27161 -8.3687,11.02693 -2.89195,3.74739 -5.21505,7.87596 -10.07629,9.49637 -1.6536,0.55119 -3.36761,0.32815 -5.01273,-0.14849 -1.64515,-0.47664 -3.22139,-1.20687 -4.59944,-1.67003"
       style="fill:none;fill-rule:evenodd;stroke:#61495c;stroke-width:3.35449052;stroke-linecap:round;stroke-linejoin:miter;stroke-miterlimit:4;stroke-dasharray:none;stroke-opacity:1" />
    <path
       style="fill:none;fill-opacity:1;fill-rule:evenodd;stroke:#61495c;stroke-width:3.35449052;stroke-linecap:round;stroke-linejoin:miter;stroke-miterlimit:4;stroke-dasharray:none;stroke-opacity:1"
       d="m 255.75329,96.850132 0.88536,0 c 1.59258,-0.762835 3.02365,-1.43645 3.13033,-3.232568 0.008,-0.05991 0.004,-0.125161 0.009,-0.18708 8.6e-4,-0.12717 0.008,-0.248746 -0.004,-0.387212 -0.0134,-0.216431 -0.0531,-0.442096 -0.1131,-0.676534 -0.0189,-0.08877 -0.0199,-0.161561 -0.0436,-0.254516 -0.7687,-3.011604 -2.36605,-4.23237 -5.02288,-7.326575 -2.65683,-3.094204 -5.98841,-9.05849 -8.56434,-12.088412 -1.73723,-2.043389 -3.22346,-1.751262 -4.88584,-1.505342 -0.48907,-0.0366 -0.98351,-0.03253 -1.49012,0.05655 -0.18819,0.03311 -0.36286,0.03024 -0.54383,0.04351 -0.18096,-0.01327 -0.35565,-0.01036 -0.54384,-0.04351 -0.5066,-0.08909 -1.00104,-0.09317 -1.49011,-0.05655 -0.4299,-0.0636 -0.86251,-0.137454 -1.27475,-0.165326 -1.18186,-0.07991 -2.32311,0.155706 -3.61108,1.670668 -2.57594,3.029922 -5.90752,8.994208 -8.56435,12.088412 -2.65683,3.094205 -4.25417,4.314971 -5.02289,7.326575 -0.0237,0.09295 -0.0245,0.165749 -0.0436,0.254516 -0.0599,0.234438 -0.0998,0.460103 -0.11312,0.676534 -0.0124,0.138466 -0.005,0.260042 -0.004,0.387212 0.004,0.06192 4.1e-4,0.127175 0.009,0.18708 0.1067,1.796118 1.53774,2.469733 3.13033,3.232568 l 0.88536,0"
       id="path4281"
       inkscape:connector-curvature="0"
       sodipodi:nodetypes="cccccccsscscscsssccccccc" />
    <path
       style="fill:none;fill-rule:evenodd;stroke:#61495c;stroke-width:3.35449052;stroke-linecap:round;stroke-linejoin:miter;stroke-miterlimit:4;stroke-dasharray:none;stroke-opacity:1"
       d="m 233.64474,85.523443 c -0.418,2.177934 -2.94136,6.114175 -4.35301,7.209172"
       id="path4350"
       inkscape:connector-curvature="0"
       sodipodi:nodetypes="cc" />
    <path
       sodipodi:nodetypes="cc"
       inkscape:connector-curvature="0"
       id="path4426"
       d="m 244.86784,85.523443 c 0.41799,2.177934 2.94135,6.114175 4.353,7.209172"
       style="fill:none;fill-rule:evenodd;stroke:#61495c;stroke-width:3.35449052;stroke-linecap:round;stroke-linejoin:miter;stroke-miterlimit:4;stroke-dasharray:none;stroke-opacity:1" />
    <path
       style="fill:none;fill-rule:evenodd;stroke:#61495c;stroke-width:3.35449052;stroke-linecap:round;stroke-linejoin:miter;stroke-miterlimit:4;stroke-dasharray:none;stroke-opacity:1"
       d="m 265.10583,127.04966 c -4.72154,-5.78957 -10.74531,-10.73602 -17.86259,-13.22366 -2.76219,-0.36078 -5.06055,2.54201 -7.84055,1.48681 -2.05036,-0.91202 -4.5767,-1.9866 -6.7061,-0.6964 -6.60405,2.67049 -12.67376,6.84672 -17.14329,12.43278"
       id="path4502"
       inkscape:connector-curvature="0" />
    <path
       sodipodi:nodetypes="cc"
       inkscape:connector-curvature="0"
       id="path4554"
       d="m 215.04229,76.356662 c -6.80586,6.273038 -22.65204,5.285249 -23.69072,7.932785"
       style="fill:none;fill-rule:evenodd;stroke:#61495c;stroke-width:3.35449052;stroke-linecap:round;stroke-linejoin:miter;stroke-miterlimit:4;stroke-dasharray:none;stroke-opacity:1" />
    <path
       style="fill:#000000;fill-opacity:0.58823529;fill-rule:evenodd;stroke:none;stroke-width:1px;stroke-linecap:butt;stroke-linejoin:miter;stroke-opacity:1"
       d="m 251.35431,58.618006 c 0.38036,-1.185435 5.09761,-5.764929 8.70939,-7.783747 7.17831,-1.909263 21.72369,1.790368 28.06836,5.068806 1.51168,0.823997 3.16952,2.050609 4.26594,3.341348 3.40909,5.787302 6.98785,12.427908 8.62154,18.062443 0.005,0.21702 -0.3851,0.436183 -0.71599,0.151558 -0.10143,-0.08729 -2.12921,-3.535524 -2.98659,-4.813001 -4.9219,-8.801087 -9.82977,-13.511977 -19.3422,-16.015214 -4.79473,-1.278203 -9.96245,-2.998482 -14.73383,-1.451563 -4.19529,1.44853 -6.01504,5.759398 -9.41454,7.490794 -1.31619,0.585747 -2.85245,-2.865988 -2.47208,-4.051424 z"
       id="path4556"
       inkscape:connector-curvature="0"
       sodipodi:nodetypes="zccccsccccz" />
    <path
       style="fill:none;fill-rule:evenodd;stroke:#61495c;stroke-width:3.35449052;stroke-linecap:round;stroke-linejoin:miter;stroke-miterlimit:4;stroke-dasharray:none;stroke-opacity:1"
       d="m 264.87128,76.356662 c 6.80586,6.273038 22.65205,5.285249 23.69073,7.932785"
       id="path4562"
       inkscape:connector-curvature="0"
       sodipodi:nodetypes="cc" />
    <path
       style="display:inline;opacity:1;fill:#e1d8c0;fill-opacity:1;fill-rule:evenodd;stroke:#61495c;stroke-width:3.35449052;stroke-linecap:round;stroke-linejoin:miter;stroke-miterlimit:4;stroke-dasharray:none;stroke-opacity:1"
       d="m 315.65305,114.99811 c 0.82206,-5.33407 1.9455,-11.23675 4.6925,-14.38635 1.60503,-2.355253 3.59513,-3.904397 5.57017,-3.630273 3.29595,-0.101799 6.16408,3.476153 8.06198,7.982023 1.13002,2.65958 1.41458,7.42194 1.42066,11.15426 0.0103,6.08236 -2.77459,13.77121 -5.07613,18.23521 -3.29413,6.38319 -4.68251,7.28983 -8.73873,11.72111 -2.46185,2.50631 -5.04499,5.07619 -7.79327,5.76806 -1.8726,0.10648 -3.23084,-2.66699 -3.73418,-5.71883 -0.0311,-0.13113 -0.0622,-0.26266 -0.0932,-0.39401"
       id="path4552"
       inkscape:connector-curvature="0"
       sodipodi:nodetypes="ccccsccccc" />
    <path
       sodipodi:nodetypes="ccccsccccc"
       inkscape:connector-curvature="0"
       id="path5183"
       d="m 162.63562,121.68078 c -0.82207,-5.33407 -1.94552,-11.23675 -4.6925,-14.38635 -1.60504,-2.35525 -3.59514,-3.90439 -5.57018,-3.63027 -3.29595,-0.10184 -6.16407,3.47616 -8.06197,7.98202 -1.13004,2.65958 -1.41459,7.42193 -1.42068,11.15427 -0.0103,6.08235 2.7746,13.77121 5.07614,18.2352 3.29412,6.3832 4.68251,7.28983 8.73873,11.72111 2.46185,2.50632 5.045,5.07619 7.79328,5.76806 1.87259,0.10648 3.23083,-2.667 3.73418,-5.71882 0.0311,-0.13113 0.0621,-0.26267 0.0932,-0.39402"
       style="display:inline;opacity:1;fill:#e1d8c0;fill-opacity:1;fill-rule:evenodd;stroke:#61495c;stroke-width:3.35449052;stroke-linecap:round;stroke-linejoin:miter;stroke-miterlimit:4;stroke-dasharray:none;stroke-opacity:1" />
  </g>
</svg>
