<?xml version="1.0" encoding="UTF-8" standalone="no"?>
<svg
   xmlns:dc="http://purl.org/dc/elements/1.1/"
   xmlns:cc="http://creativecommons.org/ns#"
   xmlns:rdf="http://www.w3.org/1999/02/22-rdf-syntax-ns#"
   xmlns:svg="http://www.w3.org/2000/svg"
   xmlns="http://www.w3.org/2000/svg"
   xmlns:xlink="http://www.w3.org/1999/xlink"
   xmlns:sodipodi="http://sodipodi.sourceforge.net/DTD/sodipodi-0.dtd"
   xmlns:inkscape="http://www.inkscape.org/namespaces/inkscape"
   version="1.1"
   id="svg2"
   viewBox="0 0 534.60851 221.45669"
   height="6.25cm"
   width="15.08784cm"
   inkscape:version="0.91 r13725"
   sodipodi:docname="emg_eog.svg">
  <sodipodi:namedview
     pagecolor="#ffffff"
     bordercolor="#666666"
     borderopacity="1"
     objecttolerance="10"
     gridtolerance="10"
     guidetolerance="10"
     inkscape:pageopacity="0"
     inkscape:pageshadow="2"
     inkscape:window-width="1280"
     inkscape:window-height="724"
     id="namedview10"
     showgrid="false"
     inkscape:document-units="cm"
     inkscape:zoom="1.5157716"
     inkscape:cx="355.35906"
     inkscape:cy="160.06233"
     inkscape:window-x="0"
     inkscape:window-y="24"
     inkscape:window-maximized="1"
     inkscape:current-layer="layer6"
     showguides="false" />
  <defs
     id="defs4">
    <filter
       inkscape:collect="always"
       style="color-interpolation-filters:sRGB"
       id="filter4822"
       x="-0.09089614"
       width="1.1817923"
       y="-0.13303266"
       height="1.2660653">
      <feGaussianBlur
         inkscape:collect="always"
         stdDeviation="4.3538638"
         id="feGaussianBlur4824" />
    </filter>
    <filter
       inkscape:collect="always"
       style="color-interpolation-filters:sRGB"
       id="filter4858"
       x="-0.062887172"
       width="1.1257743"
       y="-0.092039636"
       height="1.1840793">
      <feGaussianBlur
         inkscape:collect="always"
         stdDeviation="3.0122531"
         id="feGaussianBlur4860" />
    </filter>
  </defs>
  <metadata
     id="metadata7">
    <rdf:RDF>
      <cc:Work
         rdf:about="">
        <dc:format>image/svg+xml</dc:format>
        <dc:type
           rdf:resource="http://purl.org/dc/dcmitype/StillImage" />
        <dc:title></dc:title>
      </cc:Work>
    </rdf:RDF>
  </metadata>
  <g
     inkscape:groupmode="layer"
     id="layer3"
     inkscape:label="referencia"
     style="display:none"
     sodipodi:insensitive="true">
    <image
       sodipodi:absref="/home/laptop_casa/TESIS/TESIS/img_diagramas/TESIS/TESIS/img_diagramas/Screenshot at 2017-10-03 11:13:00.png"
       xlink:href="TESIS/TESIS/img_diagramas/Screenshot at 2017-10-03 11:13:00.png"
       y="82.070137"
       x="22.198788"
       id="image3344"
       preserveAspectRatio="none"
       height="136.6506"
       width="215.95676" />
    <image
       sodipodi:absref="/home/laptop_casa/TESIS/TESIS/img_diagramas/TESIS/TESIS/img_diagramas/Screenshot at 2017-10-03 11:14:21.png"
       xlink:href="TESIS/TESIS/img_diagramas/Screenshot at 2017-10-03 11:14:21.png"
       y="-0.055838555"
       x="291.30768"
       id="image3366"
       preserveAspectRatio="none"
       height="221.51253"
       width="224.79773" />
    <path
       inkscape:connector-curvature="0"
       style="fill:none;fill-rule:evenodd;stroke:#000000;stroke-width:0.82066751px;stroke-linecap:butt;stroke-linejoin:miter;stroke-opacity:1"
       d="M 185.13736,85.82682 C 169.33969,67.68457 119.19512,67.21697 96.015407,73.0119 91.573909,74.12227 84.335501,82.47231 80.870499,85.24432"
       id="path3369" />
    <image
       sodipodi:absref="/home/laptop_casa/TESIS/TESIS/img_diagramas/TESIS/TESIS/img_diagramas/Screenshot at 2017-10-03 11:13:30.png"
       xlink:href="TESIS/TESIS/img_diagramas/Screenshot at 2017-10-03 11:13:30.png"
       y="-27.135977"
       x="42.026375"
       id="image3381"
       preserveAspectRatio="none"
       height="84.091248"
       width="186.25168" />
  </g>
  <g
     inkscape:groupmode="layer"
     id="layer2"
     inkscape:label="boceto cabeza"
     style="display:none"
     sodipodi:insensitive="true">
    <ellipse
       cy="97.989868"
       cx="604.00446"
       id="circle4155"
       style="opacity:1;fill:#d35f5f;fill-opacity:0.33816427;fill-rule:nonzero;stroke:#606060;stroke-width:3.03643203;stroke-linecap:butt;stroke-linejoin:round;stroke-miterlimit:4;stroke-dasharray:none;stroke-dashoffset:0;stroke-opacity:1"
       rx="87.064461"
       ry="113.96126" />
    <circle
       style="opacity:1;fill:#0088ff;fill-opacity:0.33816427;fill-rule:nonzero;stroke:#606060;stroke-width:2.65976834;stroke-linecap:butt;stroke-linejoin:round;stroke-miterlimit:4;stroke-dasharray:none;stroke-dashoffset:0;stroke-opacity:1"
       id="path3345"
       cx="604.00446"
       cy="71.093071"
       r="87.252792" />
    <path
       style="fill:none;fill-rule:evenodd;stroke:#000000;stroke-width:4.60032606;stroke-linecap:round;stroke-linejoin:miter;stroke-miterlimit:4;stroke-dasharray:none;stroke-opacity:1"
       d="m 604.62203,-14.710665 0,224.363115"
       id="path4147"
       inkscape:connector-curvature="0"
       sodipodi:nodetypes="cc" />
    <ellipse
       ry="78.779175"
       rx="87.31855"
       style="opacity:1;fill:#d35f5f;fill-opacity:0.33816427;fill-rule:nonzero;stroke:#606060;stroke-width:2.52826977;stroke-linecap:butt;stroke-linejoin:round;stroke-miterlimit:4;stroke-dasharray:none;stroke-dashoffset:0;stroke-opacity:1"
       id="ellipse4157"
       cx="604.00446"
       cy="97.982246" />
    <ellipse
       cy="97.982246"
       cx="604.00446"
       id="ellipse4161"
       style="opacity:1;fill:#d35f5f;fill-opacity:0.33816427;fill-rule:nonzero;stroke:#606060;stroke-width:2.03076649;stroke-linecap:butt;stroke-linejoin:round;stroke-miterlimit:4;stroke-dasharray:none;stroke-dashoffset:0;stroke-opacity:1"
       rx="87.567307"
       ry="50.681469" />
    <ellipse
       ry="140.41722"
       rx="87.69281"
       style="opacity:1;fill:#d35f5f;fill-opacity:0.05314008;fill-rule:nonzero;stroke:#000000;stroke-width:1.77972734;stroke-linecap:butt;stroke-linejoin:round;stroke-miterlimit:4;stroke-dasharray:none;stroke-dashoffset:0;stroke-opacity:0.33816427"
       id="ellipse4163"
       cx="403.93701"
       cy="129.1685" />
    <ellipse
       cy="129.1888"
       cx="403.93701"
       id="ellipse4165"
       style="opacity:1;fill:#d35f5f;fill-opacity:0.05314008;fill-rule:nonzero;stroke:#000000;stroke-width:1.77717352;stroke-linecap:butt;stroke-linejoin:round;stroke-miterlimit:4;stroke-dasharray:none;stroke-dashoffset:0;stroke-opacity:0.33816427"
       rx="87.694092"
       ry="101.69034" />
    <ellipse
       ry="73.557976"
       rx="87.695168"
       style="opacity:1;fill:#d35f5f;fill-opacity:0.05314008;fill-rule:nonzero;stroke:#000000;stroke-width:1.77502012;stroke-linecap:butt;stroke-linejoin:round;stroke-miterlimit:4;stroke-dasharray:none;stroke-dashoffset:0;stroke-opacity:0.33816427"
       id="ellipse4167"
       cx="403.93701"
       cy="129.18837" />
    <ellipse
       cy="129.17126"
       cx="403.93759"
       id="ellipse4169"
       style="opacity:1;fill:#d35f5f;fill-opacity:0.05314008;fill-rule:nonzero;stroke:#000000;stroke-width:1.77165353;stroke-linecap:butt;stroke-linejoin:round;stroke-miterlimit:4;stroke-dasharray:none;stroke-dashoffset:0;stroke-opacity:0.33816427"
       rx="87.697441"
       ry="38.463207" />
    <ellipse
       ry="17.491671"
       rx="87.698257"
       style="opacity:1;fill:#d35f5f;fill-opacity:0.05314008;fill-rule:nonzero;stroke:#000000;stroke-width:1.76883602;stroke-linecap:butt;stroke-linejoin:round;stroke-miterlimit:4;stroke-dasharray:none;stroke-dashoffset:0;stroke-opacity:0.33816427"
       id="ellipse4185"
       cx="403.93701"
       cy="129.16722" />
  </g>
  <g
     inkscape:groupmode="layer"
     id="layer5"
     inkscape:label="lineas_cabeza 2"
     style="display:none">
    <path
       style="opacity:1;fill:#800080;fill-opacity:0.33333333;fill-rule:nonzero;stroke:#000000;stroke-width:1.39410138;stroke-linecap:round;stroke-linejoin:round;stroke-miterlimit:4;stroke-dasharray:none;stroke-dashoffset:0;stroke-opacity:1"
       d="m 417.14935,-47.079 c 1.84718,0.638087 5.10743,0.485399 6.15028,-0.510286 3.38103,-3.228156 -4.06493,-7.665559 -8.20177,-11.86452 -5.10423,-5.180893 -4.96267,-8.023192 -11.16085,-7.980933 -6.19818,-0.04226 -6.05662,2.80004 -11.16085,7.980933 -4.13684,4.198961 -11.5828,8.636364 -8.20177,11.86452 1.04284,0.995685 4.3031,1.148373 6.15028,0.510286 l 3.53103,-0.510286"
       id="rect4238"
       inkscape:connector-curvature="0"
       sodipodi:nodetypes="csscsscc" />
    <rect
       style="opacity:1;fill:#800080;fill-opacity:0.33333333;fill-rule:nonzero;stroke:none;stroke-width:3.54330707;stroke-linecap:round;stroke-linejoin:round;stroke-miterlimit:4;stroke-dasharray:none;stroke-dashoffset:0;stroke-opacity:1"
       id="rect4242"
       width="106.29921"
       height="66.01181"
       x="403.93698"
       y="260.01181" />
    <path
       inkscape:connector-curvature="0"
       id="path4295"
       d="m 359.18671,151.61919 c 3.75823,2.42543 8.36377,4.27368 13.37464,5.66009 5.01088,1.38639 10.42709,2.31094 15.80667,2.88886 5.3796,0.57792 10.72256,0.80924 15.58694,0.80924 4.86436,0 10.20733,-0.23132 15.5869,-0.80924 5.37961,-0.57792 10.79583,-1.50247 15.80669,-2.88886 5.01087,-1.38641 9.61641,-3.23466 13.37462,-5.66009"
       style="fill:none;fill-opacity:0.33333333;fill-rule:evenodd;stroke:#000000;stroke-width:4.34412193;stroke-linecap:round;stroke-linejoin:miter;stroke-miterlimit:4;stroke-dasharray:none;stroke-opacity:1"
       sodipodi:nodetypes="csssssc" />
    <path
       sodipodi:nodetypes="cc"
       inkscape:connector-curvature="0"
       id="path4306"
       d="m 377.29072,71.538423 c -5.56804,8.576437 -17.57664,12.500388 -25.57731,10.616081"
       style="fill:none;fill-rule:evenodd;stroke:#000000;stroke-width:3.54330707;stroke-linecap:round;stroke-linejoin:miter;stroke-miterlimit:4;stroke-dasharray:none;stroke-opacity:1" />
    <path
       inkscape:connector-curvature="0"
       id="path4308"
       d="m 383.1598,56.44661 c 5.42839,-2.315709 3.42312,-12.740865 -2.30711,-12.543543 -12.67186,-3.377673 -25.75286,3.069469 -35.16369,12.777449 -3.35239,3.43113 -6.2845,7.407047 -8.73897,11.741941 -3.8134,3.026496 1.71974,6.264512 3.28497,2.082002 10.51211,-7.329596 22.46098,-13.008432 34.93487,-12.64042 2.69594,-0.10303 5.4273,-0.373541 7.98993,-1.417429 z"
       style="fill:#00d7d7;fill-opacity:0.33333333;fill-rule:evenodd;stroke:none;stroke-width:1px;stroke-linecap:butt;stroke-linejoin:miter;stroke-opacity:1" />
    <path
       style="fill:#00d7d7;fill-opacity:0.33333333;fill-rule:evenodd;stroke:none;stroke-width:1px;stroke-linecap:butt;stroke-linejoin:miter;stroke-opacity:1"
       d="m 424.71419,56.44661 c -5.42839,-2.315709 -3.42312,-12.740865 2.30711,-12.543543 12.67186,-3.377673 25.75286,3.069469 35.16369,12.777449 3.35239,3.43113 6.2845,7.407047 8.73897,11.741941 3.8134,3.026496 -1.71974,6.264512 -3.28497,2.082002 -10.51211,-7.329596 -22.46098,-13.008432 -34.93487,-12.64042 -2.69594,-0.10303 -5.4273,-0.373541 -7.98993,-1.417429 z"
       id="path4310"
       inkscape:connector-curvature="0" />
    <path
       style="fill:none;fill-opacity:0.33333333;fill-rule:evenodd;stroke:#000000;stroke-width:3.54330707;stroke-linecap:round;stroke-linejoin:miter;stroke-miterlimit:4;stroke-dasharray:none;stroke-opacity:1"
       d="m 425.98047,129.17383 c -2.8153,-3.15962 -6.753,-5.0001 -10.6702,-6.40197 -3.87328,-0.77656 -7.32836,1.65928 -11.01773,2.31782 -3.0456,-0.95179 -6.04074,-2.48904 -9.32665,-2.19724 -4.98837,0.14945 -9.70765,2.6787 -13.07331,6.28139"
       id="path4312"
       inkscape:connector-curvature="0" />
    <path
       style="fill:none;fill-opacity:0.33333333;fill-rule:evenodd;stroke:#000000;stroke-width:3.54330707;stroke-linecap:round;stroke-linejoin:miter;stroke-miterlimit:4;stroke-dasharray:none;stroke-opacity:1"
       d="m 409.06505,63.986911 c -1.51231,7.628231 0.72509,14.94976 4.33967,21.513238 2.3222,3.458354 5.63215,6.432671 6.49819,10.779561 0.74536,2.58661 -1.32902,5.13059 -3.59694,5.70279 -1.64678,0.54527 -3.43113,0.19719 -4.93838,-0.6255 -2.64316,-0.80032 -1.48372,2.47837 -7.43059,2.47837 -5.94688,0 -4.78744,-3.27868 -7.4306,-2.47837 -1.50725,0.82269 -3.2916,1.17077 -4.93838,0.6255 -2.26792,-0.5722 -4.3423,-3.11618 -3.59694,-5.70279 0.86604,-4.34689 4.17599,-7.321207 6.49819,-10.779561 1.80729,-3.28174 3.27028,-6.752991 4.09242,-10.357337 0.82213,-3.604345 1.00341,-7.341786 0.24725,-11.155901"
       id="path4331"
       inkscape:connector-curvature="0"
       sodipodi:nodetypes="ccccccccccsc" />
    <path
       style="fill:none;fill-rule:evenodd;stroke:#000000;stroke-width:3.54330707;stroke-linecap:round;stroke-linejoin:miter;stroke-miterlimit:4;stroke-dasharray:none;stroke-opacity:1"
       d="m 430.58327,71.538423 c 5.56804,8.576437 17.57664,12.500388 25.57731,10.616081"
       id="path4341"
       inkscape:connector-curvature="0"
       sodipodi:nodetypes="cc" />
  </g>
  <g
     inkscape:groupmode="layer"
     id="layer4"
     inkscape:label="lineas_cabeza"
     style="display:none">
    <path
       sodipodi:nodetypes="ccsccsscssccscc"
       inkscape:connector-curvature="0"
       id="path4180"
       d="m 345.62453,235.51747 c 5.47821,-15.13865 4.27572,-33.25201 1.40109,-44.78464 -1.61012,-7.12615 -2.49831,-16.49333 -7.26513,-26.08963 -4.76681,-9.59631 -13.41225,-19.42174 -14.53685,-27.46441 -1.63162,-29.19455 -4.00238,-55.896055 5.88074,-80.642134 2.95727,-7.341083 6.3769,-14.163163 10.0098,-19.533909 7.26576,-10.741492 15.91044,-18.322319 25.51908,-23.217849 9.60864,-4.895531 26.18122,-9.105766 37.30377,-9.105766 11.12256,0 27.69514,4.210235 37.30377,9.105766 9.60864,4.89553 18.25334,12.476357 25.5191,23.217849 3.63287,5.370746 7.05252,12.192826 10.00979,19.533909 9.88311,24.746079 7.51236,51.447584 5.88074,80.642134 -1.1246,8.04267 -9.77003,17.8681 -14.53685,27.46441 -4.76682,9.5963 -5.65503,18.96348 -7.26514,26.08963 -2.87463,11.53263 -4.07712,29.64599 1.4011,44.78464"
       style="display:inline;opacity:1;fill:#f4d7d7;fill-opacity:0.1594203;fill-rule:nonzero;stroke:#000000;stroke-width:3.39704633;stroke-linecap:round;stroke-linejoin:round;stroke-miterlimit:4;stroke-dasharray:none;stroke-dashoffset:0;stroke-opacity:1" />
    <rect
       style="opacity:1;fill:#800080;fill-opacity:0.33333333;fill-rule:nonzero;stroke:none;stroke-width:3.54330707;stroke-linecap:round;stroke-linejoin:round;stroke-miterlimit:4;stroke-dasharray:none;stroke-dashoffset:0;stroke-opacity:1"
       id="rect4229"
       width="212.59842"
       height="66.01181"
       x="297.63779"
       y="260.01181" />
    <path
       inkscape:connector-curvature="0"
       id="path4231"
       d="m 328.4997,101.8839 c -2.36244,-5.347006 -6.6211,-10.051416 -11.68332,-10.192354 -7.33816,0.258495 -12.6586,11.215534 -9.66147,19.620734 2.70459,9.26091 10.04186,15.25943 11.96331,24.99033 0.97942,3.56714 1.70855,7.22763 2.58276,10.83413 2.22639,5.1801 9.39004,5.24306 11.26024,-0.27304"
       style="opacity:1;fill:#f4d7d7;fill-opacity:0.33333333;fill-rule:nonzero;stroke:#000000;stroke-width:3.54330707;stroke-linecap:round;stroke-linejoin:round;stroke-miterlimit:4;stroke-dasharray:none;stroke-dashoffset:0;stroke-opacity:1" />
    <rect
       y="260.01181"
       x="403.93698"
       height="66.01181"
       width="106.29921"
       id="rect4233"
       style="opacity:1;fill:#800080;fill-opacity:0.33333333;fill-rule:nonzero;stroke:none;stroke-width:3.54330707;stroke-linecap:round;stroke-linejoin:round;stroke-miterlimit:4;stroke-dasharray:none;stroke-dashoffset:0;stroke-opacity:1" />
    <path
       style="fill:none;fill-rule:evenodd;stroke:#000000;stroke-width:1.77165353;stroke-linecap:round;stroke-linejoin:miter;stroke-miterlimit:4;stroke-dasharray:none;stroke-opacity:1"
       d="m 403.93701,-17.606299 0,248.921259"
       id="path4235"
       inkscape:connector-curvature="0"
       sodipodi:nodetypes="cc" />
    <path
       style="opacity:1;fill:#f4d7d7;fill-opacity:0.33333333;fill-rule:nonzero;stroke:#000000;stroke-width:3.54330707;stroke-linecap:round;stroke-linejoin:round;stroke-miterlimit:4;stroke-dasharray:none;stroke-dashoffset:0;stroke-opacity:1"
       d="m 479.37429,101.8839 c 2.36244,-5.347006 6.6211,-10.051416 11.68332,-10.192354 7.33816,0.258495 12.6586,11.215534 9.66147,19.620734 -2.70459,9.26091 -10.04186,15.25943 -11.96331,24.99033 -0.97942,3.56714 -1.70855,7.22763 -2.58276,10.83413 -2.22639,5.1801 -9.39004,5.24306 -11.26024,-0.27304"
       id="path4357"
       inkscape:connector-curvature="0" />
  </g>
  <g
     inkscape:groupmode="layer"
     id="layer8"
     inkscape:label="referencia 2" />
  <g
     inkscape:groupmode="layer"
     id="layer6"
     inkscape:label="bueno">
    <rect
       transform="matrix(-1,0,0,1,-11.266572,0)"
       style="display:inline;opacity:1;fill:#f6dde3;fill-opacity:1;fill-rule:nonzero;stroke:none;stroke-width:3.54330707;stroke-linecap:round;stroke-linejoin:round;stroke-miterlimit:4;stroke-dasharray:none;stroke-dashoffset:0;stroke-opacity:1;filter:url(#filter4822)"
       id="rect4784"
       width="114.95838"
       height="78.546677"
       x="-136.67422"
       y="89.028542" />
    <rect
       y="261.87781"
       x="-219.14047"
       height="66.01181"
       width="212.59842"
       id="rect4547"
       style="display:inline;opacity:1;fill:#800080;fill-opacity:0.33333333;fill-rule:nonzero;stroke:none;stroke-width:3.54330707;stroke-linecap:round;stroke-linejoin:round;stroke-miterlimit:4;stroke-dasharray:none;stroke-dashoffset:0;stroke-opacity:1"
       transform="scale(-1,1)" />
    <path
       style="display:inline;opacity:1;fill:#f6dde3;fill-opacity:1;fill-rule:nonzero;stroke:#82627b;stroke-width:3.54330707;stroke-linecap:round;stroke-linejoin:round;stroke-miterlimit:4;stroke-dasharray:none;stroke-dashoffset:0;stroke-opacity:1"
       d="m 194.32682,216.87968 c 0.0262,-8.57407 -1.03622,-16.65658 -2.53484,-22.94484 -1.67878,-7.7712 -2.60537,-17.98649 -7.57547,-28.45143 -0.24511,-0.38903 -0.47134,-0.7799 -0.71072,-1.16932 -9.76809,-20.14352 -22.08347,-35.31982 -22.95432,-52.4194 -0.014,-0.31156 -0.0314,-0.6236 -0.0427,-0.93503 -0.0182,-0.45123 -0.0273,-0.90678 -0.0387,-1.36102 -0.0149,-0.62862 -0.0243,-1.25699 -0.0286,-1.88496 -0.003,-0.64104 -0.004,-1.2837 0.007,-1.93184 l 0.007,-0.44515 c 0.23939,-11.393889 2.55897,-23.970096 7.17227,-39.55683 0.33247,-0.975667 0.67176,-1.949714 1.02433,-2.920116 3.08339,-8.00558 6.64881,-15.446537 10.43666,-21.303431 7.57501,-11.713785 16.58885,-19.979661 26.60728,-25.318323 9.99736,-5.327428 27.22198,-9.9082772 38.81828,-9.927543 11.59632,0.019263 28.82094,4.600115 38.8183,9.927543 10.01844,5.338662 19.03225,13.604538 26.6079,25.318323 3.78784,5.856894 7.35328,13.297851 10.43667,21.303431 0.34951,0.962014 0.68844,1.927368 1.01821,2.894557 4.61826,15.59835 6.93886,28.182373 7.17839,39.582389 l 0.007,0.44515 c 0.0109,0.64814 0.01,1.2908 0.007,1.93184 -0.004,0.62797 -0.0135,1.25634 -0.0285,1.88496 -0.0116,0.45424 -0.0205,0.90979 -0.0387,1.36102 -0.0113,0.31143 -0.0288,0.62347 -0.0427,0.93503 -0.87084,17.09958 -13.18623,32.27588 -22.95432,52.4194 -0.23938,0.38942 -0.4656,0.78029 -0.71071,1.16932 -4.97012,10.46494 -5.89467,20.68023 -7.57345,28.45143 -1.49862,6.28826 -2.56155,14.37077 -2.53585,22.94484"
       id="path4405"
       inkscape:connector-curvature="0"
       sodipodi:nodetypes="ccccccccccccsscsscccccccccccc" />
    <path
       style="fill:none;fill-rule:evenodd;stroke:#82627b;stroke-width:3.3684094;stroke-linecap:round;stroke-linejoin:miter;stroke-miterlimit:4;stroke-dasharray:none;stroke-opacity:1"
       d="m 216.6284,76.095272 c -7.35942,7.801706 -19.55433,8.888504 -26.54398,4.753907"
       id="path4370"
       inkscape:connector-curvature="0"
       sodipodi:nodetypes="cc" />
    <path
       style="fill:#000000;fill-opacity:0.50196078;fill-rule:evenodd;stroke:none;stroke-width:3.54330707;stroke-linecap:butt;stroke-linejoin:miter;stroke-miterlimit:4;stroke-dasharray:none;stroke-opacity:1"
       d="m 229.10664,46.664878 c -5.31865,-3.111221 -11.4483,-3.874386 -17.27073,-3.00242 -8.16886,1.223364 -16.36731,3.686398 -23.18533,8.407233 -5.49277,3.803204 -10.0075,9.162356 -12.73887,15.191223 -1.12966,2.493488 2.14432,-0.235403 2.96624,-0.939472 5.12646,-4.391368 10.60872,-8.566034 17.04933,-10.826079 7.49283,-2.629285 12.47228,-4.445975 20.58384,-4.569237 2.3842,-0.03622 6.99478,1.674472 9.29234,2.085146 3.18843,0.530097 6.20313,-4.453399 3.30318,-6.346394 z"
       id="path4372"
       inkscape:connector-curvature="0"
       sodipodi:nodetypes="csssssscc" />
    <path
       style="fill:none;fill-opacity:0.33333333;fill-rule:evenodd;stroke:#82627b;stroke-width:3.54330707;stroke-linecap:round;stroke-linejoin:miter;stroke-miterlimit:4;stroke-dasharray:none;stroke-opacity:1"
       d="m 219.86624,133.70684 c 20.10348,-6.1311 35.60293,-4.65556 49.17762,3e-5"
       id="path4376"
       inkscape:connector-curvature="0"
       sodipodi:nodetypes="cc" />
    <path
       sodipodi:nodetypes="csssssscc"
       inkscape:connector-curvature="0"
       id="path4526"
       d="m 261.14871,43.974161 c 5.61837,-2.530117 11.79438,-2.639458 17.49164,-1.155429 7.99323,2.082087 15.88452,5.399998 22.16393,10.816727 5.05883,4.363829 8.98026,10.17121 11.0574,16.455562 0.85908,2.599152 -2.10729,-0.461298 -2.84999,-1.248498 -4.63226,-4.909867 -9.64129,-9.641956 -15.80614,-12.571754 -7.17205,-3.408458 -11.93095,-5.742565 -19.98379,-6.724672 -2.36693,-0.288668 -7.13283,0.923844 -9.46097,1.088747 -3.22665,0.18925 -5.6963,-5.085639 -2.61208,-6.660683 z"
       style="fill:#000000;fill-opacity:0.50196078;fill-rule:evenodd;stroke:none;stroke-width:3.54330707;stroke-linecap:butt;stroke-linejoin:miter;stroke-miterlimit:4;stroke-dasharray:none;stroke-opacity:1" />
    <path
       sodipodi:nodetypes="ccccsccccc"
       inkscape:connector-curvature="0"
       id="path4550"
       d="m 165.93669,109.262 c -0.94977,-4.80597 -2.25876,-10.12575 -5.5488,-12.979411 -1.91824,-2.130773 -4.30756,-3.538826 -6.69319,-3.305989 -3.97668,-0.114766 -7.46624,3.085025 -9.7923,7.12664 -1.38478,2.38547 -1.76593,6.66918 -1.80285,10.02792 -0.0602,5.47353 3.23916,12.41239 5.98125,16.44574 3.92468,5.76743 5.59294,6.59307 10.45281,10.60928 2.95104,2.27274 6.04797,4.60352 9.35904,5.24543 2.25897,0.10892 3.92007,-2.37742 4.55167,-5.12028 0.0386,-0.1178 0.0771,-0.23595 0.11564,-0.35391"
       style="display:inline;opacity:1;fill:#f6dde3;fill-opacity:1;fill-rule:evenodd;stroke:#82627b;stroke-width:3.54330707;stroke-linecap:round;stroke-linejoin:miter;stroke-miterlimit:4;stroke-dasharray:none;stroke-opacity:1" />
    <path
       style="display:inline;opacity:1;fill:#f6dde3;fill-opacity:1;fill-rule:evenodd;stroke:#82627b;stroke-width:3.54330707;stroke-linecap:round;stroke-linejoin:miter;stroke-miterlimit:4;stroke-dasharray:none;stroke-opacity:1"
       d="m 322.99189,109.24371 c 0.95964,-4.80401 2.27954,-10.1211 5.57545,-12.967985 1.92262,-2.126827 4.31483,-3.529968 6.69997,-3.292229 3.97691,-0.106595 7.45988,3.100359 9.77764,7.146744 1.37987,2.38831 1.75222,6.6728 1.78224,10.0316 0.0489,5.47365 -3.26467,12.40571 -6.01503,16.43342 -3.93652,5.75936 -5.60649,6.58156 -10.47459,10.58778 -2.9557,2.26667 -6.05741,4.59108 -9.3698,5.22618 -2.25919,0.10429 -3.91517,-2.38546 -4.54113,-5.12962 -0.0384,-0.11787 -0.0766,-0.2361 -0.11492,-0.35415"
       id="path4552"
       inkscape:connector-curvature="0"
       sodipodi:nodetypes="ccccsccccc" />
    <path
       style="fill:none;fill-opacity:0.33333333;fill-rule:evenodd;stroke:#82627b;stroke-width:3.54330707;stroke-linecap:round;stroke-linejoin:miter;stroke-miterlimit:4;stroke-dasharray:none;stroke-opacity:1"
       d="m 238.46372,69.217158 c 1.36665,4.771321 1.30429,7.910103 0.77839,11.201588 -0.25734,1.610557 -2.66901,7.750741 -4.55641,10.29066 -2.73292,3.677764 -8.5983,8.377054 -8.43918,13.268194 0.10563,3.24837 4.36831,1.76958 8.36452,2.97589 3.99623,1.20632 3.51516,5.21955 9.02825,5.37069 5.51309,0.15113 5.03201,-4.16437 9.02824,-5.37069 3.99621,-1.20631 8.25889,0.27248 8.36452,-2.97589 0.15912,-4.89114 -6.0697,-9.346416 -8.43917,-13.268194 -2.13335,-3.530948 -3.22248,-7.11983 -3.77803,-10.761406 -0.55554,-3.641587 -0.41295,-7.430199 0.41078,-11.643568"
       id="path4554"
       inkscape:connector-curvature="0"
       sodipodi:nodetypes="csssssssssc" />
    <path
       sodipodi:nodetypes="cc"
       inkscape:connector-curvature="0"
       id="path4609"
       d="m 268.37292,73.383941 c 7.1009,8.037711 19.25385,9.521886 26.3747,5.617584"
       style="fill:none;fill-rule:evenodd;stroke:#82627b;stroke-width:3.3684094;stroke-linecap:round;stroke-linejoin:miter;stroke-miterlimit:4;stroke-dasharray:none;stroke-opacity:1" />
    <path
       sodipodi:nodetypes="caaszsaac"
       style="fill:none;fill-opacity:1;fill-rule:evenodd;stroke:#82627b;stroke-width:3.4371891;stroke-linecap:round;stroke-linejoin:miter;stroke-miterlimit:4;stroke-dasharray:none;stroke-opacity:1"
       d="m 199.13874,159.02762 c 2.18359,1.19637 5.36479,3.3945 8.33339,4.20799 3.00691,0.82399 6.20507,0.98419 9.28476,0.59513 5.52974,-0.6986 10.76456,-3.19946 16.00658,-5.19697 4.4992,-1.71446 10.58156,-2.92759 14.31296,-2.85555 3.7314,0.072 7.58085,1.37832 11.10642,2.85555 4.54436,1.90411 9.07944,4.47426 14.00661,5.19697 3.06843,0.45008 6.27785,0.22886 9.28474,-0.59513 2.96859,-0.81349 6.00947,-1.93952 8.33339,-4.20799"
       id="path4368"
       inkscape:connector-curvature="0" />
    <text
       xml:space="preserve"
       style="font-style:normal;font-weight:normal;font-size:112.5px;line-height:125%;font-family:Sans;letter-spacing:0px;word-spacing:0px;fill:#000000;fill-opacity:1;stroke:none;stroke-width:1px;stroke-linecap:butt;stroke-linejoin:miter;stroke-opacity:1"
       x="25.67831"
       y="50.58662"
       id="text4740"
       sodipodi:linespacing="125%"><tspan
         sodipodi:role="line"
         id="tspan4742"
         x="25.67831"
         y="50.58662"
         style="font-size:20px">Actividad</tspan><tspan
         sodipodi:role="line"
         x="25.67831"
         y="75.586624"
         style="font-size:20px"
         id="tspan4842">muscular</tspan></text>
    <path
       inkscape:connector-curvature="0"
       id="path4702"
       d="m 23.608933,109.54787 c 2.18359,1.19637 5.36479,3.3945 8.33339,4.20799 3.00691,0.82399 6.20507,0.98419 9.28476,0.59513 5.52974,-0.6986 10.76456,-3.19946 16.00658,-5.19697 4.4992,-1.71446 10.58156,-2.92759 14.31296,-2.85555 3.7314,0.072 7.58085,1.37832 11.10642,2.85555 4.54436,1.90411 9.079445,4.47426 14.006615,5.19697 3.06843,0.45008 6.277852,0.22886 9.284742,-0.59513 2.96859,-0.81349 6.00947,-1.93952 8.33339,-4.20799"
       style="fill:none;fill-opacity:1;fill-rule:evenodd;stroke:#82627b;stroke-width:3.4371891;stroke-linecap:round;stroke-linejoin:miter;stroke-miterlimit:4;stroke-dasharray:none;stroke-opacity:1"
       sodipodi:nodetypes="caaszsaac" />
    <path
       sodipodi:nodetypes="cc"
       inkscape:connector-curvature="0"
       id="path4704"
       d="m 46.423973,148.83226 49.606305,0"
       style="fill:none;fill-rule:evenodd;stroke:#808080;stroke-width:1.77165353;stroke-linecap:round;stroke-linejoin:miter;stroke-miterlimit:4;stroke-dasharray:1.77165354, 3.54330709;stroke-dashoffset:0;stroke-opacity:1" />
    <path
       sodipodi:nodetypes="cc"
       inkscape:connector-curvature="0"
       id="path4706"
       d="m 71.227123,106.31257 0,21.25984"
       style="fill:none;fill-rule:evenodd;stroke:#808080;stroke-width:1.77165353;stroke-linecap:round;stroke-linejoin:miter;stroke-miterlimit:4;stroke-dasharray:1.77165353, 3.54330707;stroke-dashoffset:0;stroke-opacity:1" />
    <path
       style="fill:none;fill-rule:evenodd;stroke:#808080;stroke-width:1.77165353;stroke-linecap:round;stroke-linejoin:miter;stroke-miterlimit:4;stroke-dasharray:1.77165353, 3.54330707;stroke-dashoffset:0;stroke-opacity:1"
       d="m 71.227123,148.83226 0,-21.25985"
       id="path4708"
       inkscape:connector-curvature="0"
       sodipodi:nodetypes="cc" />
    <circle
       r="5.3149605"
       style="display:inline;opacity:1;fill:#1f3e77;fill-opacity:1;fill-rule:nonzero;stroke:none;stroke-width:2.51053286;stroke-linecap:round;stroke-linejoin:round;stroke-miterlimit:4;stroke-dasharray:none;stroke-dashoffset:0;stroke-opacity:1"
       id="circle4710"
       cx="71.227127"
       cy="127.57242" />
    <circle
       transform="scale(-1,1)"
       r="5.3149605"
       style="display:inline;opacity:1;fill:#1f3e77;fill-opacity:1;fill-rule:nonzero;stroke:none;stroke-width:2.51053286;stroke-linecap:round;stroke-linejoin:round;stroke-miterlimit:4;stroke-dasharray:none;stroke-dashoffset:0;stroke-opacity:1"
       id="circle4712"
       cx="-46.423958"
       cy="148.83226" />
    <circle
       cy="148.83226"
       cx="96.030258"
       id="circle4714"
       style="display:inline;opacity:1;fill:#1f3e77;fill-opacity:1;fill-rule:nonzero;stroke:none;stroke-width:2.51053286;stroke-linecap:round;stroke-linejoin:round;stroke-miterlimit:4;stroke-dasharray:none;stroke-dashoffset:0;stroke-opacity:1"
       r="5.3149605" />
    <path
       sodipodi:nodetypes="caaszsaac"
       style="fill:none;fill-opacity:1;fill-rule:evenodd;stroke:#82627b;stroke-width:3.4371891;stroke-linecap:round;stroke-linejoin:miter;stroke-miterlimit:4;stroke-dasharray:none;stroke-opacity:1"
       d="m 23.608933,109.54787 c 2.18359,1.19637 5.36479,3.3945 8.33339,4.20799 3.00691,0.82399 6.20507,0.98419 9.28476,0.59513 5.52974,-0.6986 10.76456,-3.19946 16.00658,-5.19697 4.4992,-1.71446 10.58156,-2.92759 14.31296,-2.85555 3.7314,0.072 7.58085,1.37832 11.10642,2.85555 4.54436,1.90411 9.079445,4.47426 14.006615,5.19697 3.06843,0.45008 6.277852,0.22886 9.284742,-0.59513 2.96859,-0.81349 6.00947,-1.93952 8.33339,-4.20799"
       id="path4716"
       inkscape:connector-curvature="0" />
    <rect
       y="89.028542"
       x="-136.67422"
       height="78.546677"
       width="114.95838"
       id="rect4826"
       style="display:inline;opacity:1;fill:#f6dde3;fill-opacity:1;fill-rule:nonzero;stroke:none;stroke-width:3.54330707;stroke-linecap:round;stroke-linejoin:round;stroke-miterlimit:4;stroke-dasharray:none;stroke-dashoffset:0;stroke-opacity:1;filter:url(#filter4858)"
       transform="matrix(-1.4521842,0,0,1.0520069,331.8767,-8.9816217)" />
    <text
       sodipodi:linespacing="125%"
       id="text4834"
       y="191.76884"
       x="49.428593"
       style="font-style:normal;font-weight:normal;font-size:112.5px;line-height:125%;font-family:Sans;letter-spacing:0px;word-spacing:0px;fill:#000000;fill-opacity:1;stroke:none;stroke-width:1px;stroke-linecap:butt;stroke-linejoin:miter;stroke-opacity:1"
       xml:space="preserve"><tspan
         style="font-size:20px"
         y="191.76884"
         x="49.428593"
         id="tspan4836"
         sodipodi:role="line">EMG</tspan></text>
  </g>
  <g
     inkscape:groupmode="layer"
     id="layer7"
     inkscape:label="etiquetas">
    <path
       style="fill:none;fill-rule:evenodd;stroke:#808080;stroke-width:1.77165353;stroke-linecap:round;stroke-linejoin:miter;stroke-miterlimit:4;stroke-dasharray:1.77165354, 3.54330709;stroke-dashoffset:0;stroke-opacity:1"
       d="m 231.83546,181.6661 28.55236,0"
       id="path4642"
       inkscape:connector-curvature="0"
       sodipodi:nodetypes="cc" />
    <path
       style="fill:none;fill-rule:evenodd;stroke:#808080;stroke-width:1.77165353;stroke-linecap:round;stroke-linejoin:miter;stroke-miterlimit:4;stroke-dasharray:1.77165354, 3.54330709;stroke-dashoffset:0;stroke-opacity:1"
       d="m 246.11165,157.19265 0,12.23673"
       id="path4650"
       inkscape:connector-curvature="0"
       sodipodi:nodetypes="cc" />
    <path
       sodipodi:nodetypes="cc"
       inkscape:connector-curvature="0"
       id="path4652"
       d="m 246.11165,181.6661 0,-12.23672"
       style="fill:none;fill-rule:evenodd;stroke:#808080;stroke-width:1.77165353;stroke-linecap:round;stroke-linejoin:miter;stroke-miterlimit:4;stroke-dasharray:1.77165354, 3.54330709;stroke-dashoffset:0;stroke-opacity:1" />
    <circle
       cy="168.42192"
       cx="246.52368"
       id="circle4634"
       style="display:inline;opacity:1;fill:#1f3e77;fill-opacity:1;fill-rule:nonzero;stroke:none;stroke-width:2.51053286;stroke-linecap:round;stroke-linejoin:round;stroke-miterlimit:4;stroke-dasharray:none;stroke-dashoffset:0;stroke-opacity:1"
       r="5.3149605" />
    <circle
       cy="181.75128"
       cx="-230.35075"
       id="circle4640"
       style="display:inline;opacity:1;fill:#1f3e77;fill-opacity:1;fill-rule:nonzero;stroke:none;stroke-width:2.51053286;stroke-linecap:round;stroke-linejoin:round;stroke-miterlimit:4;stroke-dasharray:none;stroke-dashoffset:0;stroke-opacity:1"
       r="5.3149605"
       transform="scale(-1,1)" />
    <circle
       r="5.3149605"
       style="display:inline;opacity:1;fill:#1f3e77;fill-opacity:1;fill-rule:nonzero;stroke:none;stroke-width:2.51053286;stroke-linecap:round;stroke-linejoin:round;stroke-miterlimit:4;stroke-dasharray:none;stroke-dashoffset:0;stroke-opacity:1"
       id="circle4636"
       cx="262.23007"
       cy="181.51802" />
    <path
       inkscape:connector-curvature="0"
       id="path4654"
       d="m 199.13874,159.02762 c 2.18359,1.19637 5.36479,3.3945 8.33339,4.20799 3.00691,0.82399 6.20507,0.98419 9.28476,0.59513 5.52974,-0.6986 10.76456,-3.19946 16.00658,-5.19697 4.4992,-1.71446 10.58156,-2.92759 14.31296,-2.85555 3.7314,0.072 7.58085,1.37832 11.10642,2.85555 4.54436,1.90411 9.07944,4.47426 14.00661,5.19697 3.06843,0.45008 6.27785,0.22886 9.28474,-0.59513 2.96859,-0.81349 6.00947,-1.93952 8.33339,-4.20799"
       style="fill:none;fill-opacity:1;fill-rule:evenodd;stroke:#82627b;stroke-width:3.4371891;stroke-linecap:round;stroke-linejoin:miter;stroke-miterlimit:4;stroke-dasharray:none;stroke-opacity:1"
       sodipodi:nodetypes="caaszsaac" />
    <path
       sodipodi:nodetypes="cc"
       inkscape:connector-curvature="0"
       id="path4690"
       d="m 177.59991,80.943279 11.73697,0"
       style="fill:none;fill-rule:evenodd;stroke:#808080;stroke-width:1.77165353;stroke-linecap:round;stroke-linejoin:miter;stroke-miterlimit:4;stroke-dasharray:1.77165354, 3.54330709;stroke-dashoffset:0;stroke-opacity:1" />
    <path
       style="fill:none;fill-rule:evenodd;stroke:#808080;stroke-width:1.77165353;stroke-linecap:round;stroke-linejoin:miter;stroke-miterlimit:4;stroke-dasharray:1.77165354, 3.54330709;stroke-dashoffset:0;stroke-opacity:1"
       d="m 177.59373,80.943279 0,-11.742092"
       id="path4692"
       inkscape:connector-curvature="0"
       sodipodi:nodetypes="cc" />
    <circle
       r="5.3149605"
       style="display:inline;opacity:1;fill:#327400;fill-opacity:1;fill-rule:nonzero;stroke:none;stroke-width:2.51053286;stroke-linecap:round;stroke-linejoin:round;stroke-miterlimit:4;stroke-dasharray:none;stroke-dashoffset:0;stroke-opacity:1"
       id="circle5178"
       cx="177.82089"
       cy="69.040565" />
    <path
       style="fill:none;fill-rule:evenodd;stroke:#808080;stroke-width:1.77165353;stroke-linecap:round;stroke-linejoin:miter;stroke-miterlimit:4;stroke-dasharray:1.77165354, 3.54330709;stroke-dashoffset:0;stroke-opacity:1"
       d="m 309.14696,78.868241 0,11.73697"
       id="path4695"
       inkscape:connector-curvature="0"
       sodipodi:nodetypes="cc" />
    <path
       sodipodi:nodetypes="cc"
       inkscape:connector-curvature="0"
       id="path4697"
       d="m 297.40125,78.86568 11.7421,0"
       style="fill:none;fill-rule:evenodd;stroke:#808080;stroke-width:1.77165353;stroke-linecap:round;stroke-linejoin:miter;stroke-miterlimit:4;stroke-dasharray:1.77165354, 3.54330709;stroke-dashoffset:0;stroke-opacity:1" />
    <circle
       cy="90.805962"
       cx="308.90729"
       id="circle4667"
       style="display:inline;opacity:1;fill:#327400;fill-opacity:1;fill-rule:nonzero;stroke:none;stroke-width:2.51053286;stroke-linecap:round;stroke-linejoin:round;stroke-miterlimit:4;stroke-dasharray:none;stroke-dashoffset:0;stroke-opacity:1"
       r="5.3149605" />
    <text
       sodipodi:linespacing="125%"
       id="text4744"
       y="47.246349"
       x="379.39764"
       style="font-style:normal;font-weight:normal;font-size:112.5px;line-height:125%;font-family:Sans;letter-spacing:0px;word-spacing:0px;fill:#000000;fill-opacity:1;stroke:none;stroke-width:1px;stroke-linecap:butt;stroke-linejoin:miter;stroke-opacity:1"
       xml:space="preserve"><tspan
         style="font-size:20px"
         y="47.246349"
         x="379.39764"
         id="tspan4746"
         sodipodi:role="line">Movimientos</tspan><tspan
         style="font-size:20px"
         y="72.246353"
         x="379.39764"
         sodipodi:role="line"
         id="tspan4844">    oculares</tspan></text>
    <path
       sodipodi:nodetypes="cc"
       inkscape:connector-curvature="0"
       id="path4718"
       d="m 421.86687,124.91529 c -7.35942,7.80171 -19.55433,8.88851 -26.54398,4.75391"
       style="fill:none;fill-rule:evenodd;stroke:#82627b;stroke-width:3.3684094;stroke-linecap:round;stroke-linejoin:miter;stroke-miterlimit:4;stroke-dasharray:none;stroke-opacity:1" />
    <path
       sodipodi:nodetypes="csssssscc"
       inkscape:connector-curvature="0"
       id="path4720"
       d="m 434.34511,95.484899 c -5.31865,-3.11122 -11.4483,-3.87439 -17.27073,-3.00242 -8.16886,1.22336 -16.36731,3.6864 -23.18533,8.407231 -5.49277,3.80321 -10.0075,9.16236 -12.73887,15.19123 -1.12966,2.49348 2.14432,-0.23541 2.96624,-0.93948 5.12646,-4.39136 10.60872,-8.56603 17.04933,-10.82608 7.49283,-2.62928 12.47228,-4.445971 20.58384,-4.569231 2.3842,-0.0362 6.99478,1.674471 9.29234,2.085141 3.18843,0.5301 6.20313,-4.453401 3.30318,-6.346391 z"
       style="fill:#000000;fill-opacity:0.50196078;fill-rule:evenodd;stroke:none;stroke-width:3.54330707;stroke-linecap:butt;stroke-linejoin:miter;stroke-miterlimit:4;stroke-dasharray:none;stroke-opacity:1" />
    <path
       style="fill:#000000;fill-opacity:0.50196078;fill-rule:evenodd;stroke:none;stroke-width:3.54330707;stroke-linecap:butt;stroke-linejoin:miter;stroke-miterlimit:4;stroke-dasharray:none;stroke-opacity:1"
       d="m 466.38718,92.794179 c 5.61837,-2.53011 11.79438,-2.63946 17.49164,-1.15543 7.99323,2.08209 15.88452,5.4 22.16393,10.816731 5.05883,4.36383 8.98026,10.17121 11.0574,16.45556 0.85908,2.59915 -2.10729,-0.4613 -2.84999,-1.2485 -4.63226,-4.90986 -9.64129,-9.64195 -15.80614,-12.57175 -7.17205,-3.40846 -11.93095,-5.742561 -19.98379,-6.724671 -2.36693,-0.28867 -7.13283,0.92384 -9.46097,1.08875 -3.22665,0.18925 -5.6963,-5.08564 -2.61208,-6.66069 z"
       id="path4722"
       inkscape:connector-curvature="0"
       sodipodi:nodetypes="csssssscc" />
    <path
       sodipodi:nodetypes="csssssssssc"
       inkscape:connector-curvature="0"
       id="path4724"
       d="m 443.70219,118.03718 c 1.36665,4.77132 1.30429,7.9101 0.77839,11.20159 -0.25734,1.61055 -2.66901,7.75074 -4.55641,10.29066 -2.73292,3.67776 -8.5983,8.37705 -8.43918,13.26819 0.10563,3.24837 4.36831,1.76958 8.36452,2.97589 3.99623,1.20632 3.51516,5.21955 9.02825,5.37069 5.51309,0.15113 5.03201,-4.16437 9.02824,-5.37069 3.99621,-1.20631 8.25889,0.27248 8.36452,-2.97589 0.15912,-4.89114 -6.0697,-9.34641 -8.43917,-13.26819 -2.13335,-3.53095 -3.22248,-7.11983 -3.77803,-10.76141 -0.55554,-3.64159 -0.41295,-7.4302 0.41078,-11.64357"
       style="fill:none;fill-opacity:0.33333333;fill-rule:evenodd;stroke:#82627b;stroke-width:3.54330707;stroke-linecap:round;stroke-linejoin:miter;stroke-miterlimit:4;stroke-dasharray:none;stroke-opacity:1" />
    <path
       style="fill:none;fill-rule:evenodd;stroke:#82627b;stroke-width:3.3684094;stroke-linecap:round;stroke-linejoin:miter;stroke-miterlimit:4;stroke-dasharray:none;stroke-opacity:1"
       d="m 473.61139,122.20396 c 7.1009,8.03771 19.25385,9.52189 26.3747,5.61759"
       id="path4726"
       inkscape:connector-curvature="0"
       sodipodi:nodetypes="cc" />
    <path
       style="fill:none;fill-rule:evenodd;stroke:#808080;stroke-width:1.77165353;stroke-linecap:round;stroke-linejoin:miter;stroke-miterlimit:4;stroke-dasharray:1.77165354, 3.54330709;stroke-dashoffset:0;stroke-opacity:1"
       d="m 372.83348,129.14594 21.11352,0"
       id="path4728"
       inkscape:connector-curvature="0"
       sodipodi:nodetypes="cc" />
    <path
       sodipodi:nodetypes="cc"
       inkscape:connector-curvature="0"
       id="path4730"
       d="m 372.82236,129.14594 0,-21.12273"
       style="fill:none;fill-rule:evenodd;stroke:#808080;stroke-width:1.77165353;stroke-linecap:round;stroke-linejoin:miter;stroke-miterlimit:4;stroke-dasharray:1.77165354, 3.54330709;stroke-dashoffset:0;stroke-opacity:1" />
    <circle
       cy="109.05631"
       cx="372.56998"
       id="circle4732"
       style="display:inline;opacity:1;fill:#327400;fill-opacity:1;fill-rule:nonzero;stroke:none;stroke-width:2.51053286;stroke-linecap:round;stroke-linejoin:round;stroke-miterlimit:4;stroke-dasharray:none;stroke-dashoffset:0;stroke-opacity:1"
       r="5.3149605" />
    <path
       sodipodi:nodetypes="cc"
       inkscape:connector-curvature="0"
       id="path4828"
       d="m 522.59327,128.15527 0,21.11352"
       style="fill:none;fill-rule:evenodd;stroke:#808080;stroke-width:1.77165353;stroke-linecap:round;stroke-linejoin:miter;stroke-miterlimit:4;stroke-dasharray:1.77165354, 3.54330709;stroke-dashoffset:0;stroke-opacity:1" />
    <path
       style="fill:none;fill-rule:evenodd;stroke:#808080;stroke-width:1.77165353;stroke-linecap:round;stroke-linejoin:miter;stroke-miterlimit:4;stroke-dasharray:1.77165354, 3.54330709;stroke-dashoffset:0;stroke-opacity:1"
       d="m 501.46402,128.15067 21.12273,0"
       id="path4830"
       inkscape:connector-curvature="0"
       sodipodi:nodetypes="cc" />
    <circle
       r="5.3149605"
       style="display:inline;opacity:1;fill:#327400;fill-opacity:1;fill-rule:nonzero;stroke:none;stroke-width:2.51053286;stroke-linecap:round;stroke-linejoin:round;stroke-miterlimit:4;stroke-dasharray:none;stroke-dashoffset:0;stroke-opacity:1"
       id="circle4832"
       cx="147.32065"
       cy="-522.65857"
       transform="matrix(0,1,-1,0,0,0)" />
    <text
       xml:space="preserve"
       style="font-style:normal;font-weight:normal;font-size:112.5px;line-height:125%;font-family:Sans;letter-spacing:0px;word-spacing:0px;fill:#000000;fill-opacity:1;stroke:none;stroke-width:1px;stroke-linecap:butt;stroke-linejoin:miter;stroke-opacity:1"
       x="375.43927"
       y="189.12993"
       id="text4838"
       sodipodi:linespacing="125%"><tspan
         sodipodi:role="line"
         id="tspan4840"
         x="375.43927"
         y="189.12993"
         style="font-size:20px">ROG         LOG</tspan></text>
  </g>
</svg>
